<?xml version="1.0" encoding="UTF-8"?><svg xmlns="http://www.w3.org/2000/svg" xmlns:xlink="http://www.w3.org/1999/xlink" stroke-dasharray="none" shape-rendering="auto" font-family="'Dialog'" width="417" text-rendering="auto" fill-opacity="1" contentScriptType="text/ecmascript" color-interpolation="auto" color-rendering="auto" preserveAspectRatio="xMidYMid meet" font-size="12" viewBox="0 0 417 496" fill="black" stroke="black" image-rendering="auto" stroke-miterlimit="10" zoomAndPan="magnify" version="1.0" stroke-linecap="square" stroke-linejoin="miter" contentStyleType="text/css" font-style="normal" height="496" stroke-width="1" stroke-dashoffset="0" font-weight="normal" stroke-opacity="1">
    <!--Generated by the Batik Graphics2D SVG Generator-->
    <defs id="genericDefs"/>
    <g>
        <defs id="defs1">
            <clipPath clipPathUnits="userSpaceOnUse" id="clipPath1">
                <path d="M72 12 L94 12 L94 34 L72 34 L72 12 Z"/>
            </clipPath>
            <clipPath clipPathUnits="userSpaceOnUse" id="clipPath2">
                <path d="M9 86 L156 86 L156 149 L9 149 L9 86 Z"/>
            </clipPath>
            <clipPath clipPathUnits="userSpaceOnUse" id="clipPath3">
                <path d="M60 106 L105 106 L105 128 L60 128 L60 106 Z"/>
            </clipPath>
            <clipPath clipPathUnits="userSpaceOnUse" id="clipPath4">
                <path d="M9 206 L156 206 L156 269 L9 269 L9 206 Z"/>
            </clipPath>
            <clipPath clipPathUnits="userSpaceOnUse" id="clipPath5">
                <path d="M46 226 L119 226 L119 248 L46 248 L46 226 Z"/>
            </clipPath>
            <clipPath clipPathUnits="userSpaceOnUse" id="clipPath6">
                <path d="M225 206 L408 206 L408 269 L225 269 L225 206 Z"/>
            </clipPath>
            <clipPath clipPathUnits="userSpaceOnUse" id="clipPath7">
                <path d="M265 226 L367 226 L367 248 L265 248 L265 226 Z"/>
            </clipPath>
            <clipPath clipPathUnits="userSpaceOnUse" id="clipPath8">
                <path d="M9 338 L156 338 L156 401 L9 401 L9 338 Z"/>
            </clipPath>
            <clipPath clipPathUnits="userSpaceOnUse" id="clipPath9">
                <path d="M56 358 L109 358 L109 380 L56 380 L56 358 Z"/>
            </clipPath>
            <clipPath clipPathUnits="userSpaceOnUse" id="clipPath10">
                <path d="M74 470 L91 470 L91 487 L74 487 L74 470 Z"/>
            </clipPath>
            <clipPath clipPathUnits="userSpaceOnUse" id="clipPath11">
                <path d="M76 472 L89 472 L89 485 L76 485 L76 472 Z"/>
            </clipPath>
            <clipPath clipPathUnits="userSpaceOnUse" id="clipPath12">
                <path d="M79 475 L86 475 L86 482 L79 482 L79 475 Z"/>
            </clipPath>
            <clipPath clipPathUnits="userSpaceOnUse" id="clipPath13">
                <path d="M-1 -1 L418 -1 L418 497 L-1 497 L-1 -1 Z"/>
            </clipPath>
            <clipPath clipPathUnits="userSpaceOnUse" id="clipPath14">
                <path d="M78 463 L87 463 L87 473 L78 473 L78 463 Z"/>
            </clipPath>
            <clipPath clipPathUnits="userSpaceOnUse" id="clipPath15">
                <path d="M-1 -1 L418 -1 L418 497 L-1 497 L-1 -1 Z"/>
            </clipPath>
            <clipPath clipPathUnits="userSpaceOnUse" id="clipPath16">
                <path d="M79 79 L88 79 L88 89 L79 89 L79 79 Z"/>
            </clipPath>
            <clipPath clipPathUnits="userSpaceOnUse" id="clipPath17">
                <path d="M-1 -1 L418 -1 L418 497 L-1 497 L-1 -1 Z"/>
            </clipPath>
            <clipPath clipPathUnits="userSpaceOnUse" id="clipPath18">
                <path d="M27 199 L36 199 L36 209 L27 209 L27 199 Z"/>
            </clipPath>
            <clipPath clipPathUnits="userSpaceOnUse" id="clipPath19">
                <path d="M-1 -1 L418 -1 L418 497 L-1 497 L-1 -1 Z"/>
            </clipPath>
            <clipPath clipPathUnits="userSpaceOnUse" id="clipPath20">
                <path d="M117 147 L126 147 L126 157 L117 157 L117 147 Z"/>
            </clipPath>
            <clipPath clipPathUnits="userSpaceOnUse" id="clipPath21">
                <path d="M-1 -1 L418 -1 L418 497 L-1 497 L-1 -1 Z"/>
            </clipPath>
            <clipPath clipPathUnits="userSpaceOnUse" id="clipPath22">
                <path d="M29 331 L38 331 L38 341 L29 341 L29 331 Z"/>
            </clipPath>
            <clipPath clipPathUnits="userSpaceOnUse" id="clipPath23">
                <path d="M-1 -1 L418 -1 L418 497 L-1 497 L-1 -1 Z"/>
            </clipPath>
            <clipPath clipPathUnits="userSpaceOnUse" id="clipPath24">
                <path d="M115 267 L124 267 L124 277 L115 277 L115 267 Z"/>
            </clipPath>
            <clipPath clipPathUnits="userSpaceOnUse" id="clipPath25">
                <path d="M-1 -1 L418 -1 L418 497 L-1 497 L-1 -1 Z"/>
            </clipPath>
            <clipPath clipPathUnits="userSpaceOnUse" id="clipPath26">
                <path d="M218 215 L228 215 L228 224 L218 224 L218 215 Z"/>
            </clipPath>
            <clipPath clipPathUnits="userSpaceOnUse" id="clipPath27">
                <path d="M-1 -1 L418 -1 L418 497 L-1 497 L-1 -1 Z"/>
            </clipPath>
            <clipPath clipPathUnits="userSpaceOnUse" id="clipPath28">
                <path d="M154 251 L164 251 L164 260 L154 260 L154 251 Z"/>
            </clipPath>
        </defs>
        <g font-size="15" fill="white" font-family="'Segoe UI'" stroke-linejoin="round" stroke="white" stroke-width="0" stroke-miterlimit="0">
            <circle clip-path="url(#clipPath1)" fill="black" r="6.5" cx="82.5" cy="24.5" stroke="none"/>
            <rect x="74" y="13" clip-path="url(#clipPath1)" fill="black" width="18" height="3" stroke="none"/>
        </g>
        <g font-size="15" fill="white" font-family="'Segoe UI'" stroke-linejoin="round" stroke="white" stroke-width="0" stroke-miterlimit="0">
            <rect x="10" y="87" clip-path="url(#clipPath2)" uuid="_CczPkZ9XEeqSgMxfrOAmyg" width="145" rx="4" ry="4" height="61" stroke="none" stroke-width="1.1"/>
        </g>
        <g stroke-linecap="butt" font-size="15" fill="rgb(176,176,176)" font-family="'Segoe UI'" stroke="rgb(176,176,176)" stroke-width="1.1">
            <rect x="10" y="87" clip-path="url(#clipPath2)" fill="none" width="144" rx="4" ry="4" height="60"/>
            <text x="61" y="124" clip-path="url(#clipPath3)" fill="black" stroke="none" xml:space="preserve">Voting</text>
        </g>
        <g stroke-linecap="butt" font-size="15" fill="white" font-family="'Segoe UI'" stroke="white" stroke-width="1.1">
            <rect x="10" y="207" clip-path="url(#clipPath4)" uuid="_ExTo0Z9XEeqSgMxfrOAmyg" width="145" rx="4" ry="4" height="61" stroke="none"/>
            <rect x="10" y="207" clip-path="url(#clipPath4)" fill="none" width="144" rx="4" ry="4" height="60" stroke="rgb(176,176,176)"/>
            <text x="47" y="244" clip-path="url(#clipPath5)" fill="black" stroke="none" xml:space="preserve">Intentional</text>
        </g>
        <g stroke-linecap="butt" font-size="15" fill="white" font-family="'Segoe UI'" stroke="white" stroke-width="1.1">
            <rect x="226" y="207" clip-path="url(#clipPath6)" uuid="_HY3g8Z9XEeqSgMxfrOAmyg" width="181" rx="4" ry="4" height="61" stroke="none"/>
            <rect x="226" y="207" clip-path="url(#clipPath6)" fill="none" width="180" rx="4" ry="4" height="60" stroke="rgb(176,176,176)"/>
            <text x="266" y="244" clip-path="url(#clipPath7)" fill="black" stroke="none" xml:space="preserve">Switch Initiator</text>
        </g>
        <g stroke-linecap="butt" font-size="15" fill="white" font-family="'Segoe UI'" stroke="white" stroke-width="1.1">
            <rect x="10" y="339" clip-path="url(#clipPath8)" uuid="_I_XksZ9XEeqSgMxfrOAmyg" width="145" rx="4" ry="4" height="61" stroke="none"/>
            <rect x="10" y="339" clip-path="url(#clipPath8)" fill="none" width="144" rx="4" ry="4" height="60" stroke="rgb(176,176,176)"/>
            <text x="57" y="376" clip-path="url(#clipPath9)" fill="black" stroke="none" xml:space="preserve">Execute</text>
        </g>
        <g stroke-linecap="butt" font-size="15" fill="white" font-family="'Segoe UI'" stroke="white" stroke-width="1.1">
            <circle clip-path="url(#clipPath10)" fill="black" uuid="_J4kdkZ9XEeqSgMxfrOAmyg" r="6.5" cx="81.5" cy="477.5" stroke="none"/>
            <circle r="4.5" clip-path="url(#clipPath11)" cx="81.5" cy="477.5" stroke="none"/>
            <circle clip-path="url(#clipPath12)" fill="black" r="1.5" cx="81.5" cy="477.5" stroke="none"/>
        </g>
        <g font-size="15" font-family="'Segoe UI'" stroke-linecap="butt">
            <line clip-path="url(#clipPath13)" fill="none" uuid="_LLVtAZ9XEeqSgMxfrOAmyg" x1="82" x2="82" y1="400" y2="471"/>
            <polygon uuid="_LLVtAZ9XEeqSgMxfrOAmyg" clip-path="url(#clipPath14)" points=" 82 471 79 464 85 464" stroke="none"/>
            <polygon uuid="_LLVtAZ9XEeqSgMxfrOAmyg" fill="none" clip-path="url(#clipPath14)" points=" 82 471 79 464 85 464"/>
        </g>
        <g font-size="15" font-family="'Segoe UI'" stroke-linecap="butt">
            <line clip-path="url(#clipPath15)" fill="none" uuid="_MnN1IZ9XEeqSgMxfrOAmyg" x1="83" x2="83" y1="23" y2="87"/>
            <polygon uuid="_MnN1IZ9XEeqSgMxfrOAmyg" clip-path="url(#clipPath16)" points=" 83 87 80 80 86 80" stroke="none"/>
            <polygon uuid="_MnN1IZ9XEeqSgMxfrOAmyg" fill="none" clip-path="url(#clipPath16)" points=" 83 87 80 80 86 80"/>
        </g>
        <g font-size="15" font-family="'Segoe UI'" stroke-linecap="butt">
            <line clip-path="url(#clipPath17)" fill="none" uuid="_NikqIZ9XEeqSgMxfrOAmyg" x1="31" x2="31" y1="148" y2="207"/>
            <polygon uuid="_NikqIZ9XEeqSgMxfrOAmyg" clip-path="url(#clipPath18)" points=" 31 207 28 200 34 200" stroke="none"/>
            <polygon uuid="_NikqIZ9XEeqSgMxfrOAmyg" fill="none" clip-path="url(#clipPath18)" points=" 31 207 28 200 34 200"/>
        </g>
        <g font-size="15" font-family="'Segoe UI'" stroke-linecap="butt">
            <line clip-path="url(#clipPath19)" fill="none" uuid="_OQaAgZ9XEeqSgMxfrOAmyg" x1="121" x2="121" y1="207" y2="148"/>
            <polygon uuid="_OQaAgZ9XEeqSgMxfrOAmyg" clip-path="url(#clipPath20)" points=" 121 148 124 155 118 155" stroke="none"/>
            <polygon uuid="_OQaAgZ9XEeqSgMxfrOAmyg" fill="none" clip-path="url(#clipPath20)" points=" 121 148 124 155 118 155"/>
        </g>
        <g font-size="15" font-family="'Segoe UI'" stroke-linecap="butt">
            <line clip-path="url(#clipPath21)" fill="none" uuid="_ZjtgwZ9XEeqSgMxfrOAmyg" x1="33" x2="33" y1="268" y2="339"/>
            <polygon uuid="_ZjtgwZ9XEeqSgMxfrOAmyg" clip-path="url(#clipPath22)" points=" 33 339 30 332 36 332" stroke="none"/>
            <polygon uuid="_ZjtgwZ9XEeqSgMxfrOAmyg" fill="none" clip-path="url(#clipPath22)" points=" 33 339 30 332 36 332"/>
        </g>
        <g font-size="15" font-family="'Segoe UI'" stroke-linecap="butt">
            <line clip-path="url(#clipPath23)" fill="none" uuid="_aGTQcZ9XEeqSgMxfrOAmyg" x1="119" x2="119" y1="339" y2="268"/>
            <polygon uuid="_aGTQcZ9XEeqSgMxfrOAmyg" clip-path="url(#clipPath24)" points=" 119 268 122 275 116 275" stroke="none"/>
            <polygon uuid="_aGTQcZ9XEeqSgMxfrOAmyg" fill="none" clip-path="url(#clipPath24)" points=" 119 268 122 275 116 275"/>
        </g>
        <g font-size="15" font-family="'Segoe UI'" stroke-linecap="butt">
            <line clip-path="url(#clipPath25)" fill="none" uuid="_au46cZ9XEeqSgMxfrOAmyg" x1="155" x2="226" y1="219" y2="219"/>
            <polygon uuid="_au46cZ9XEeqSgMxfrOAmyg" clip-path="url(#clipPath26)" points=" 226 219 219 222 219 216" stroke="none"/>
            <polygon uuid="_au46cZ9XEeqSgMxfrOAmyg" fill="none" clip-path="url(#clipPath26)" points=" 226 219 219 222 219 216"/>
        </g>
        <g font-size="15" font-family="'Segoe UI'" stroke-linecap="butt">
            <line clip-path="url(#clipPath27)" fill="none" uuid="_bXyGcZ9XEeqSgMxfrOAmyg" x1="226" x2="155" y1="255" y2="255"/>
            <polygon uuid="_bXyGcZ9XEeqSgMxfrOAmyg" clip-path="url(#clipPath28)" points=" 155 255 162 252 162 258" stroke="none"/>
            <polygon uuid="_bXyGcZ9XEeqSgMxfrOAmyg" fill="none" clip-path="url(#clipPath28)" points=" 155 255 162 252 162 258"/>
        </g>
    </g>
</svg>
