<?xml version="1.0" encoding="UTF-8"?><svg xmlns="http://www.w3.org/2000/svg" xmlns:xlink="http://www.w3.org/1999/xlink" stroke-dasharray="none" shape-rendering="auto" font-family="'Dialog'" width="718" text-rendering="auto" fill-opacity="1" contentScriptType="text/ecmascript" color-interpolation="auto" color-rendering="auto" preserveAspectRatio="xMidYMid meet" font-size="12" viewBox="0 0 718 263" fill="black" stroke="black" image-rendering="auto" stroke-miterlimit="10" zoomAndPan="magnify" version="1.0" stroke-linecap="square" stroke-linejoin="miter" contentStyleType="text/css" font-style="normal" height="263" stroke-width="1" stroke-dashoffset="0" font-weight="normal" stroke-opacity="1">
    <!--Generated by the Batik Graphics2D SVG Generator-->
    <defs id="genericDefs"/>
    <g>
        <defs id="defs1">
            <clipPath clipPathUnits="userSpaceOnUse" id="clipPath1">
                <path d="M15 12 L37 12 L37 34 L15 34 L15 12 Z"/>
            </clipPath>
            <clipPath clipPathUnits="userSpaceOnUse" id="clipPath2">
                <path d="M10 93 L121 93 L121 156 L10 156 L10 93 Z"/>
            </clipPath>
            <clipPath clipPathUnits="userSpaceOnUse" id="clipPath3">
                <path d="M32 113 L98 113 L98 135 L32 135 L32 113 Z"/>
            </clipPath>
            <clipPath clipPathUnits="userSpaceOnUse" id="clipPath4">
                <path d="M286 99 L433 99 L433 150 L286 150 L286 99 Z"/>
            </clipPath>
            <clipPath clipPathUnits="userSpaceOnUse" id="clipPath5">
                <path d="M328 113 L390 113 L390 135 L328 135 L328 113 Z"/>
            </clipPath>
            <clipPath clipPathUnits="userSpaceOnUse" id="clipPath6">
                <path d="M550 99 L709 99 L709 150 L550 150 L550 99 Z"/>
            </clipPath>
            <clipPath clipPathUnits="userSpaceOnUse" id="clipPath7">
                <path d="M569 113 L689 113 L689 135 L569 135 L569 113 Z"/>
            </clipPath>
            <clipPath clipPathUnits="userSpaceOnUse" id="clipPath8">
                <path d="M289 165 L431 165 L431 215 L289 215 L289 165 Z"/>
            </clipPath>
            <clipPath clipPathUnits="userSpaceOnUse" id="clipPath9">
                <path d="M327 179 L393 179 L393 201 L327 201 L327 179 Z"/>
            </clipPath>
            <clipPath clipPathUnits="userSpaceOnUse" id="clipPath10">
                <path d="M351 237 L368 237 L368 254 L351 254 L351 237 Z"/>
            </clipPath>
            <clipPath clipPathUnits="userSpaceOnUse" id="clipPath11">
                <path d="M353 239 L366 239 L366 252 L353 252 L353 239 Z"/>
            </clipPath>
            <clipPath clipPathUnits="userSpaceOnUse" id="clipPath12">
                <path d="M356 242 L363 242 L363 249 L356 249 L356 242 Z"/>
            </clipPath>
            <clipPath clipPathUnits="userSpaceOnUse" id="clipPath13">
                <path d="M-1 -1 L719 -1 L719 264 L-1 264 L-1 -1 Z"/>
            </clipPath>
            <clipPath clipPathUnits="userSpaceOnUse" id="clipPath14">
                <path d="M22 86 L31 86 L31 96 L22 96 L22 86 Z"/>
            </clipPath>
            <clipPath clipPathUnits="userSpaceOnUse" id="clipPath15">
                <path d="M-1 -1 L719 -1 L719 264 L-1 264 L-1 -1 Z"/>
            </clipPath>
            <clipPath clipPathUnits="userSpaceOnUse" id="clipPath16">
                <path d="M279 96 L289 96 L289 105 L279 105 L279 96 Z"/>
            </clipPath>
            <clipPath clipPathUnits="userSpaceOnUse" id="clipPath17">
                <path d="M-1 -1 L719 -1 L719 264 L-1 264 L-1 -1 Z"/>
            </clipPath>
            <clipPath clipPathUnits="userSpaceOnUse" id="clipPath18">
                <path d="M543 108 L553 108 L553 117 L543 117 L543 108 Z"/>
            </clipPath>
            <clipPath clipPathUnits="userSpaceOnUse" id="clipPath19">
                <path d="M-1 -1 L719 -1 L719 264 L-1 264 L-1 -1 Z"/>
            </clipPath>
            <clipPath clipPathUnits="userSpaceOnUse" id="clipPath20">
                <path d="M431 129 L441 129 L441 138 L431 138 L431 129 Z"/>
            </clipPath>
            <clipPath clipPathUnits="userSpaceOnUse" id="clipPath21">
                <path d="M-1 -1 L719 -1 L719 264 L-1 264 L-1 -1 Z"/>
            </clipPath>
            <clipPath clipPathUnits="userSpaceOnUse" id="clipPath22">
                <path d="M119 126 L129 126 L129 135 L119 135 L119 126 Z"/>
            </clipPath>
            <clipPath clipPathUnits="userSpaceOnUse" id="clipPath23">
                <path d="M-1 -1 L719 -1 L719 264 L-1 264 L-1 -1 Z"/>
            </clipPath>
            <clipPath clipPathUnits="userSpaceOnUse" id="clipPath24">
                <path d="M356 158 L365 158 L365 168 L356 168 L356 158 Z"/>
            </clipPath>
            <clipPath clipPathUnits="userSpaceOnUse" id="clipPath25">
                <path d="M-1 -1 L719 -1 L719 264 L-1 264 L-1 -1 Z"/>
            </clipPath>
            <clipPath clipPathUnits="userSpaceOnUse" id="clipPath26">
                <path d="M355 230 L364 230 L364 240 L355 240 L355 230 Z"/>
            </clipPath>
        </defs>
        <g font-size="15" fill="white" font-family="'Segoe UI'" stroke-linejoin="round" stroke="white" stroke-width="0" stroke-miterlimit="0">
            <circle clip-path="url(#clipPath1)" fill="black" r="6.5" cx="25.5" cy="24.5" stroke="none"/>
            <rect x="17" y="13" clip-path="url(#clipPath1)" fill="black" width="18" height="3" stroke="none"/>
        </g>
        <g font-size="15" fill="white" font-family="'Segoe UI'" stroke-linejoin="round" stroke="white" stroke-width="0" stroke-miterlimit="0">
            <rect x="11" y="94" clip-path="url(#clipPath2)" uuid="_in1YMJ9NEeqSgMxfrOAmyg" width="109" rx="4" ry="4" height="61" stroke="none" stroke-width="1.1"/>
        </g>
        <g stroke-linecap="butt" font-size="15" fill="rgb(176,176,176)" font-family="'Segoe UI'" stroke="rgb(176,176,176)" stroke-width="1.1">
            <rect x="11" y="94" clip-path="url(#clipPath2)" fill="none" width="108" rx="4" ry="4" height="60"/>
            <text x="33" y="131" clip-path="url(#clipPath3)" fill="black" stroke="none" xml:space="preserve">Awarding</text>
        </g>
        <g stroke-linecap="butt" font-size="15" fill="white" font-family="'Segoe UI'" stroke="white" stroke-width="1.1">
            <rect x="287" y="100" clip-path="url(#clipPath4)" uuid="_lzLS0Z9NEeqSgMxfrOAmyg" width="145" rx="4" ry="4" height="49" stroke="none"/>
            <rect x="287" y="100" clip-path="url(#clipPath4)" fill="none" width="144" rx="4" ry="4" height="48" stroke="rgb(176,176,176)"/>
            <text x="329" y="131" clip-path="url(#clipPath5)" fill="black" stroke="none" xml:space="preserve">Assigned</text>
        </g>
        <g stroke-linecap="butt" font-size="15" fill="white" font-family="'Segoe UI'" stroke="white" stroke-width="1.1">
            <rect x="551" y="100" clip-path="url(#clipPath6)" uuid="_oGickJ9NEeqSgMxfrOAmyg" width="157" rx="4" ry="4" height="49" stroke="none"/>
            <rect x="551" y="100" clip-path="url(#clipPath6)" fill="none" width="156" rx="4" ry="4" height="48" stroke="rgb(176,176,176)"/>
            <text x="570" y="131" clip-path="url(#clipPath7)" fill="black" stroke="none" xml:space="preserve">Switch Participant</text>
        </g>
        <g stroke-linecap="butt" font-size="15" fill="white" font-family="'Segoe UI'" stroke="white" stroke-width="1.1">
            <rect x="290" y="166" clip-path="url(#clipPath8)" uuid="_cz4AEZ9OEeqSgMxfrOAmyg" width="140" rx="4" ry="4" height="48" stroke="none"/>
            <rect x="290" y="166" clip-path="url(#clipPath8)" fill="none" width="139" rx="4" ry="4" height="47" stroke="rgb(176,176,176)"/>
            <text x="328" y="197" clip-path="url(#clipPath9)" fill="black" stroke="none" xml:space="preserve">Executing</text>
        </g>
        <g stroke-linecap="butt" font-size="15" fill="white" font-family="'Segoe UI'" stroke="white" stroke-width="1.1">
            <circle clip-path="url(#clipPath10)" fill="black" uuid="_fmFB8Z9OEeqSgMxfrOAmyg" r="6.5" cx="358.5" cy="244.5" stroke="none"/>
            <circle r="4.5" clip-path="url(#clipPath11)" cx="358.5" cy="244.5" stroke="none"/>
            <circle clip-path="url(#clipPath12)" fill="black" r="1.5" cx="358.5" cy="244.5" stroke="none"/>
        </g>
        <g font-size="15" font-family="'Segoe UI'" stroke-linecap="butt">
            <line clip-path="url(#clipPath13)" fill="none" uuid="_0a5xMZ9NEeqSgMxfrOAmyg" x1="26" x2="26" y1="23" y2="94"/>
            <polygon uuid="_0a5xMZ9NEeqSgMxfrOAmyg" clip-path="url(#clipPath14)" points=" 26 94 23 87 29 87" stroke="none"/>
            <polygon uuid="_0a5xMZ9NEeqSgMxfrOAmyg" fill="none" clip-path="url(#clipPath14)" points=" 26 94 23 87 29 87"/>
        </g>
        <g font-size="15" font-family="'Segoe UI'" stroke-linecap="butt">
            <line clip-path="url(#clipPath15)" fill="none" uuid="_6-VpAJ9NEeqSgMxfrOAmyg" x1="120" x2="287" y1="100" y2="100"/>
            <polygon uuid="_6-VpAJ9NEeqSgMxfrOAmyg" clip-path="url(#clipPath16)" points=" 287 100 280 103 280 97" stroke="none"/>
            <polygon uuid="_6-VpAJ9NEeqSgMxfrOAmyg" fill="none" clip-path="url(#clipPath16)" points=" 287 100 280 103 280 97"/>
        </g>
        <g font-size="15" font-family="'Segoe UI'" stroke-linecap="butt">
            <line clip-path="url(#clipPath17)" fill="none" uuid="_LFZMIZ9OEeqSgMxfrOAmyg" x1="432" x2="539" y1="112" y2="112"/>
            <line clip-path="url(#clipPath17)" fill="none" uuid="_LFZMIZ9OEeqSgMxfrOAmyg" x1="539" x2="551" y1="112" y2="113"/>
            <polygon uuid="_LFZMIZ9OEeqSgMxfrOAmyg" clip-path="url(#clipPath18)" points=" 551 113 544 115 544 109" stroke="none"/>
            <polygon uuid="_LFZMIZ9OEeqSgMxfrOAmyg" fill="none" clip-path="url(#clipPath18)" points=" 551 113 544 115 544 109"/>
        </g>
        <g font-size="15" font-family="'Segoe UI'" stroke-linecap="butt">
            <line clip-path="url(#clipPath19)" fill="none" uuid="_LqBjMJ9OEeqSgMxfrOAmyg" x1="551" x2="432" y1="133" y2="133"/>
            <polygon uuid="_LqBjMJ9OEeqSgMxfrOAmyg" clip-path="url(#clipPath20)" points=" 432 133 439 130 439 136" stroke="none"/>
            <polygon uuid="_LqBjMJ9OEeqSgMxfrOAmyg" fill="none" clip-path="url(#clipPath20)" points=" 432 133 439 130 439 136"/>
        </g>
        <g font-size="15" font-family="'Segoe UI'" stroke-linecap="butt">
            <line clip-path="url(#clipPath21)" fill="none" uuid="_Um_eMJ9OEeqSgMxfrOAmyg" x1="287" x2="120" y1="130" y2="130"/>
            <polygon uuid="_Um_eMJ9OEeqSgMxfrOAmyg" clip-path="url(#clipPath22)" points=" 120 130 127 127 127 133" stroke="none"/>
            <polygon uuid="_Um_eMJ9OEeqSgMxfrOAmyg" fill="none" clip-path="url(#clipPath22)" points=" 120 130 127 127 127 133"/>
        </g>
        <g font-size="15" font-family="'Segoe UI'" stroke-linecap="butt">
            <line clip-path="url(#clipPath23)" fill="none" uuid="_eRWDoZ9OEeqSgMxfrOAmyg" x1="360" x2="360" y1="149" y2="166"/>
            <polygon uuid="_eRWDoZ9OEeqSgMxfrOAmyg" clip-path="url(#clipPath24)" points=" 360 166 357 159 363 159" stroke="none"/>
            <polygon uuid="_eRWDoZ9OEeqSgMxfrOAmyg" fill="none" clip-path="url(#clipPath24)" points=" 360 166 357 159 363 159"/>
        </g>
        <g font-size="15" font-family="'Segoe UI'" stroke-linecap="butt">
            <line clip-path="url(#clipPath25)" fill="none" uuid="_hkWsgZ9OEeqSgMxfrOAmyg" x1="359" x2="359" y1="214" y2="238"/>
            <polygon uuid="_hkWsgZ9OEeqSgMxfrOAmyg" clip-path="url(#clipPath26)" points=" 359 238 356 231 362 231" stroke="none"/>
            <polygon uuid="_hkWsgZ9OEeqSgMxfrOAmyg" fill="none" clip-path="url(#clipPath26)" points=" 359 238 356 231 362 231"/>
        </g>
    </g>
</svg>
